<mxfile host="" modified="2020-06-15T01:49:00.044Z" agent="5.0 (Windows NT 10.0; Win64; x64) AppleWebKit/537.36 (KHTML, like Gecko) Code/1.46.0 Chrome/78.0.3904.130 Electron/7.3.1 Safari/537.36" etag="EGyzGQCVryPrAAlAIzan" version="13.1.3" pages="6">
    <diagram id="wYlaPuf_8enS0-H2-C1S" name="Page-1">
        <mxGraphModel dx="1264" dy="1853" grid="1" gridSize="10" guides="1" tooltips="1" connect="1" arrows="1" fold="1" page="1" pageScale="1" pageWidth="850" pageHeight="1100" math="0" shadow="0">
            <root>
                <mxCell id="0"/>
                <mxCell id="1" parent="0"/>
                <mxCell id="2" value="" style="rounded=0;whiteSpace=wrap;html=1;fillColor=#d5e8d4;strokeColor=#82b366;" vertex="1" parent="1">
                    <mxGeometry x="55" y="-10" width="490" height="630" as="geometry"/>
                </mxCell>
                <mxCell id="11" value="Create a new room" style="rounded=0;whiteSpace=wrap;html=1;" vertex="1" parent="1">
                    <mxGeometry x="140" y="390" width="120" height="60" as="geometry"/>
                </mxCell>
                <mxCell id="12" value="Join Exisiting room" style="rounded=0;whiteSpace=wrap;html=1;" vertex="1" parent="1">
                    <mxGeometry x="305" y="390" width="120" height="60" as="geometry"/>
                </mxCell>
                <mxCell id="13" value="" style="rounded=0;whiteSpace=wrap;html=1;" vertex="1" parent="1">
                    <mxGeometry x="305" y="510" width="180" height="30" as="geometry"/>
                </mxCell>
                <mxCell id="14" value="Room id" style="rounded=0;whiteSpace=wrap;html=1;" vertex="1" parent="1">
                    <mxGeometry x="305" y="480" width="120" height="30" as="geometry"/>
                </mxCell>
                <mxCell id="YnJkn3bHRkLMg0f-9Slt-14" value="Logo&lt;br&gt;&lt;br&gt;Description" style="rounded=0;whiteSpace=wrap;html=1;" vertex="1" parent="1">
                    <mxGeometry x="240" y="90" width="120" height="60" as="geometry"/>
                </mxCell>
            </root>
        </mxGraphModel>
    </diagram>
    <diagram id="gnomDkvE9gdF_RBG11cO" name="Page-5">
        <mxGraphModel dx="1264" dy="753" grid="1" gridSize="10" guides="1" tooltips="1" connect="1" arrows="1" fold="1" page="1" pageScale="1" pageWidth="850" pageHeight="1100" math="0" shadow="0">
            <root>
                <mxCell id="35m5EEeLuZOQVbMLjEWQ-0"/>
                <mxCell id="35m5EEeLuZOQVbMLjEWQ-1" parent="35m5EEeLuZOQVbMLjEWQ-0"/>
                <mxCell id="mcjjCpx-fO2c62EblMXH-0" value="" style="rounded=0;whiteSpace=wrap;html=1;fillColor=#d5e8d4;strokeColor=#82b366;" vertex="1" parent="35m5EEeLuZOQVbMLjEWQ-1">
                    <mxGeometry x="70" y="40" width="490" height="630" as="geometry"/>
                </mxCell>
                <mxCell id="mcjjCpx-fO2c62EblMXH-7" value="existing member" style="rounded=0;whiteSpace=wrap;html=1;" vertex="1" parent="35m5EEeLuZOQVbMLjEWQ-1">
                    <mxGeometry x="175" y="180" width="250" height="250" as="geometry"/>
                </mxCell>
                <mxCell id="mcjjCpx-fO2c62EblMXH-8" value="Ready!" style="rounded=0;whiteSpace=wrap;html=1;" vertex="1" parent="35m5EEeLuZOQVbMLjEWQ-1">
                    <mxGeometry x="240" y="570" width="120" height="60" as="geometry"/>
                </mxCell>
                <mxCell id="_IJc7vZEaZ6xWwrHzKKu-0" value="Room number" style="rounded=0;whiteSpace=wrap;html=1;" vertex="1" parent="35m5EEeLuZOQVbMLjEWQ-1">
                    <mxGeometry x="110" y="70" width="120" height="60" as="geometry"/>
                </mxCell>
                <mxCell id="tcBakKE-EiPVMqKdpqHU-0" value="Nick Name" style="rounded=0;whiteSpace=wrap;html=1;" vertex="1" parent="35m5EEeLuZOQVbMLjEWQ-1">
                    <mxGeometry x="160" y="490" width="290" height="60" as="geometry"/>
                </mxCell>
            </root>
        </mxGraphModel>
    </diagram>
    <diagram id="uRnXaVoP4QxKS9qxw_Ji" name="Page-2">
        <mxGraphModel dx="1264" dy="753" grid="1" gridSize="10" guides="1" tooltips="1" connect="1" arrows="1" fold="1" page="1" pageScale="1" pageWidth="850" pageHeight="1100" math="0" shadow="0">
            <root>
                <mxCell id="ZdOkcBwiklfxNDUMZ36R-0"/>
                <mxCell id="ZdOkcBwiklfxNDUMZ36R-1" parent="ZdOkcBwiklfxNDUMZ36R-0"/>
                <mxCell id="ej4KoqqzMMmyuMj7TQgT-0" value="" style="rounded=0;whiteSpace=wrap;html=1;fillColor=#d5e8d4;strokeColor=#82b366;" vertex="1" parent="ZdOkcBwiklfxNDUMZ36R-1">
                    <mxGeometry x="40" y="40" width="490" height="630" as="geometry"/>
                </mxCell>
                <mxCell id="ej4KoqqzMMmyuMj7TQgT-1" value="Question" style="rounded=0;whiteSpace=wrap;html=1;fontSize=20;" vertex="1" parent="ZdOkcBwiklfxNDUMZ36R-1">
                    <mxGeometry x="80" y="220" width="390" height="210" as="geometry"/>
                </mxCell>
                <mxCell id="ej4KoqqzMMmyuMj7TQgT-2" value="answer" style="rounded=0;whiteSpace=wrap;html=1;fontSize=20;" vertex="1" parent="ZdOkcBwiklfxNDUMZ36R-1">
                    <mxGeometry x="75" y="510" width="190" height="80" as="geometry"/>
                </mxCell>
                <mxCell id="ej4KoqqzMMmyuMj7TQgT-3" value="&lt;font style=&quot;font-size: 21px&quot;&gt;submit&lt;/font&gt;" style="rounded=0;whiteSpace=wrap;html=1;fontSize=21;" vertex="1" parent="ZdOkcBwiklfxNDUMZ36R-1">
                    <mxGeometry x="350" y="510" width="120" height="60" as="geometry"/>
                </mxCell>
                <mxCell id="ej4KoqqzMMmyuMj7TQgT-4" value="Nickname" style="rounded=0;whiteSpace=wrap;html=1;fontSize=21;fillColor=#dae8fc;strokeColor=#6c8ebf;" vertex="1" parent="ZdOkcBwiklfxNDUMZ36R-1">
                    <mxGeometry x="50" y="60" width="140" height="70" as="geometry"/>
                </mxCell>
                <mxCell id="ej4KoqqzMMmyuMj7TQgT-5" value="Text" style="rounded=0;whiteSpace=wrap;html=1;fontSize=20;" vertex="1" parent="ZdOkcBwiklfxNDUMZ36R-1">
                    <mxGeometry x="70" y="470" width="200" height="20" as="geometry"/>
                </mxCell>
                <mxCell id="ej4KoqqzMMmyuMj7TQgT-6" value="Timeoutï¼š10s" style="rounded=0;whiteSpace=wrap;html=1;fontSize=20;" vertex="1" parent="ZdOkcBwiklfxNDUMZ36R-1">
                    <mxGeometry x="320" y="60" width="150" height="60" as="geometry"/>
                </mxCell>
            </root>
        </mxGraphModel>
    </diagram>
    <diagram id="pF1hU0HHr4yJNJnOzM0e" name="Page-6">
        <mxGraphModel dx="1264" dy="-347" grid="1" gridSize="10" guides="1" tooltips="1" connect="1" arrows="1" fold="1" page="1" pageScale="1" pageWidth="850" pageHeight="1100" math="0" shadow="0">
            <root>
                <mxCell id="hkUcT418RLGDBHsdV6Mj-0"/>
                <mxCell id="hkUcT418RLGDBHsdV6Mj-1" parent="hkUcT418RLGDBHsdV6Mj-0"/>
                <mxCell id="CfBoIv1rpvyiQoGEUu-F-0" value="" style="rounded=0;whiteSpace=wrap;html=1;" vertex="1" parent="hkUcT418RLGDBHsdV6Mj-1">
                    <mxGeometry x="87.5" y="1430" width="435" height="320" as="geometry"/>
                </mxCell>
                <mxCell id="CfBoIv1rpvyiQoGEUu-F-1" value="" style="rounded=0;whiteSpace=wrap;html=1;fillColor=#d5e8d4;strokeColor=#82b366;" vertex="1" parent="hkUcT418RLGDBHsdV6Mj-1">
                    <mxGeometry x="60" y="1170" width="490" height="630" as="geometry"/>
                </mxCell>
                <mxCell id="CfBoIv1rpvyiQoGEUu-F-2" value="Question" style="rounded=0;whiteSpace=wrap;html=1;" vertex="1" parent="hkUcT418RLGDBHsdV6Mj-1">
                    <mxGeometry x="117.5" y="1210" width="360" height="210" as="geometry"/>
                </mxCell>
                <mxCell id="CfBoIv1rpvyiQoGEUu-F-3" value="answerA" style="rounded=0;whiteSpace=wrap;html=1;" vertex="1" parent="hkUcT418RLGDBHsdV6Mj-1">
                    <mxGeometry x="117.5" y="1450" width="360" height="30" as="geometry"/>
                </mxCell>
                <mxCell id="CfBoIv1rpvyiQoGEUu-F-7" style="edgeStyle=orthogonalEdgeStyle;rounded=0;orthogonalLoop=1;jettySize=auto;html=1;exitX=1;exitY=0.75;exitDx=0;exitDy=0;entryX=1.017;entryY=0.633;entryDx=0;entryDy=0;entryPerimeter=0;" edge="1" parent="hkUcT418RLGDBHsdV6Mj-1">
                    <mxGeometry relative="1" as="geometry">
                        <mxPoint x="422.5" y="1535" as="sourcePoint"/>
                        <mxPoint x="424.53999999999996" y="1527.98" as="targetPoint"/>
                    </mxGeometry>
                </mxCell>
                <mxCell id="CfBoIv1rpvyiQoGEUu-F-9" value="answerA" style="rounded=0;whiteSpace=wrap;html=1;" vertex="1" parent="hkUcT418RLGDBHsdV6Mj-1">
                    <mxGeometry x="117.5" y="1635" width="360" height="30" as="geometry"/>
                </mxCell>
                <mxCell id="CfBoIv1rpvyiQoGEUu-F-10" value="answerA" style="rounded=0;whiteSpace=wrap;html=1;" vertex="1" parent="hkUcT418RLGDBHsdV6Mj-1">
                    <mxGeometry x="117.5" y="1520" width="360" height="30" as="geometry"/>
                </mxCell>
                <mxCell id="CfBoIv1rpvyiQoGEUu-F-11" value="answerA" style="rounded=0;whiteSpace=wrap;html=1;" vertex="1" parent="hkUcT418RLGDBHsdV6Mj-1">
                    <mxGeometry x="117.5" y="1575" width="360" height="30" as="geometry"/>
                </mxCell>
            </root>
        </mxGraphModel>
    </diagram>
    <diagram id="P84AVtQj-lP37BJjB7sZ" name="Page-3">
        <mxGraphModel dx="1264" dy="-347" grid="1" gridSize="10" guides="1" tooltips="1" connect="1" arrows="1" fold="1" page="1" pageScale="1" pageWidth="850" pageHeight="1100" math="0" shadow="0">
            <root>
                <mxCell id="B5rtdFA9pFEvcIHx8l1g-0"/>
                <mxCell id="B5rtdFA9pFEvcIHx8l1g-1" parent="B5rtdFA9pFEvcIHx8l1g-0"/>
                <mxCell id="JiXlzps5SqicxA3Bb9OR-0" value="" style="rounded=0;whiteSpace=wrap;html=1;" vertex="1" parent="B5rtdFA9pFEvcIHx8l1g-1">
                    <mxGeometry x="87.5" y="1430" width="435" height="320" as="geometry"/>
                </mxCell>
                <mxCell id="JiXlzps5SqicxA3Bb9OR-1" value="" style="rounded=0;whiteSpace=wrap;html=1;fillColor=#d5e8d4;strokeColor=#82b366;" vertex="1" parent="B5rtdFA9pFEvcIHx8l1g-1">
                    <mxGeometry x="60" y="1170" width="490" height="630" as="geometry"/>
                </mxCell>
                <mxCell id="JiXlzps5SqicxA3Bb9OR-2" value="Question" style="rounded=0;whiteSpace=wrap;html=1;" vertex="1" parent="B5rtdFA9pFEvcIHx8l1g-1">
                    <mxGeometry x="117.5" y="1210" width="360" height="210" as="geometry"/>
                </mxCell>
                <mxCell id="JiXlzps5SqicxA3Bb9OR-3" value="answerA" style="rounded=0;whiteSpace=wrap;html=1;" vertex="1" parent="B5rtdFA9pFEvcIHx8l1g-1">
                    <mxGeometry x="117.5" y="1450" width="360" height="30" as="geometry"/>
                </mxCell>
                <mxCell id="JiXlzps5SqicxA3Bb9OR-4" value="ID a" style="rounded=0;whiteSpace=wrap;html=1;" vertex="1" parent="B5rtdFA9pFEvcIHx8l1g-1">
                    <mxGeometry x="142.5" y="1490" width="120" height="60" as="geometry"/>
                </mxCell>
                <mxCell id="JiXlzps5SqicxA3Bb9OR-5" value="ID b" style="rounded=0;whiteSpace=wrap;html=1;" vertex="1" parent="B5rtdFA9pFEvcIHx8l1g-1">
                    <mxGeometry x="302.5" y="1490" width="120" height="60" as="geometry"/>
                </mxCell>
                <mxCell id="JiXlzps5SqicxA3Bb9OR-6" value="right answer/someone's lie" style="rounded=1;whiteSpace=wrap;html=1;" vertex="1" parent="B5rtdFA9pFEvcIHx8l1g-1">
                    <mxGeometry x="222.5" y="1560" width="120" height="60" as="geometry"/>
                </mxCell>
                <mxCell id="JiXlzps5SqicxA3Bb9OR-7" style="edgeStyle=orthogonalEdgeStyle;rounded=0;orthogonalLoop=1;jettySize=auto;html=1;exitX=1;exitY=0.75;exitDx=0;exitDy=0;entryX=1.017;entryY=0.633;entryDx=0;entryDy=0;entryPerimeter=0;" edge="1" parent="B5rtdFA9pFEvcIHx8l1g-1" source="JiXlzps5SqicxA3Bb9OR-5" target="JiXlzps5SqicxA3Bb9OR-5">
                    <mxGeometry relative="1" as="geometry"/>
                </mxCell>
                <mxCell id="JiXlzps5SqicxA3Bb9OR-8" value="sub-score" style="rounded=0;whiteSpace=wrap;html=1;" vertex="1" parent="B5rtdFA9pFEvcIHx8l1g-1">
                    <mxGeometry x="122.5" y="1640" width="340" height="120" as="geometry"/>
                </mxCell>
            </root>
        </mxGraphModel>
    </diagram>
    <diagram id="jShhZEQmSUvo8uoi9sbj" name="Page-4">
        <mxGraphModel dx="1264" dy="-347" grid="1" gridSize="10" guides="1" tooltips="1" connect="1" arrows="1" fold="1" page="1" pageScale="1" pageWidth="850" pageHeight="1100" math="0" shadow="0">
            <root>
                <mxCell id="F5yNaPxL-6CAptWWLeOx-0"/>
                <mxCell id="F5yNaPxL-6CAptWWLeOx-1" parent="F5yNaPxL-6CAptWWLeOx-0"/>
                <mxCell id="F5yNaPxL-6CAptWWLeOx-2" value="" style="rounded=0;whiteSpace=wrap;html=1;fillColor=#d5e8d4;strokeColor=#82b366;" vertex="1" parent="F5yNaPxL-6CAptWWLeOx-1">
                    <mxGeometry x="60" y="1150" width="490" height="630" as="geometry"/>
                </mxCell>
                <mxCell id="F5yNaPxL-6CAptWWLeOx-3" value="Score" style="rounded=0;whiteSpace=wrap;html=1;" vertex="1" parent="F5yNaPxL-6CAptWWLeOx-1">
                    <mxGeometry x="120" y="1170" width="380" height="500" as="geometry"/>
                </mxCell>
                <mxCell id="F5yNaPxL-6CAptWWLeOx-4" value="Next question" style="rounded=0;whiteSpace=wrap;html=1;" vertex="1" parent="F5yNaPxL-6CAptWWLeOx-1">
                    <mxGeometry x="245" y="1680" width="120" height="60" as="geometry"/>
                </mxCell>
            </root>
        </mxGraphModel>
    </diagram>
</mxfile>